<?xml version="1.0" encoding="UTF-8"?>
<svg width="1200pt" height="1200pt" version="1.1" viewBox="0 0 1200 1200" xmlns="http://www.w3.org/2000/svg">
 <g fill="#5403ba">
  <path d="m492.12 242.88 112.5 65.125 1.125 0.875c1.9062 1.0781 4.0586 1.6406 6.25 1.625 2.1914 0.015625 4.3438-0.54688 6.25-1.625l1.125-0.875 112.5-65.125c3.8828-2.2422 6.2695-6.3906 6.25-10.875v-131.12c-0.027344-4.4375-2.4062-8.5312-6.25-10.75-0.73438-0.46094-1.5352-0.79688-2.375-1l-112.5-64.875c-3.8672-2.2344-8.6328-2.2344-12.5 0l-112.38 65.625c-3.8828 2.2422-6.2695 6.3906-6.25 10.875v131.25c-0.019531 4.4844 2.3672 8.6328 6.25 10.875zm221.88-17.875-89 51.125v-102.25l89-51.375zm-101.5-175 89.25 51.5-14.375 8.25-74.875 42.5-89.125-51.5zm-101.62 72.5 89.125 51.375v102.25l-89.125-51.125z"/>
  <path d="m732.75 946.12c-0.77734-0.46094-1.6211-0.79688-2.5-1l-112.5-64.75c-3.8672-2.2344-8.6328-2.2344-12.5 0l-113.5 65.5c-3.8828 2.2422-6.2695 6.3906-6.25 10.875v131.38c0.027344 4.4375 2.4062 8.5312 6.25 10.75l112.5 65.125 1.125 0.875c1.8945 1.125 4.0508 1.7266 6.25 1.75 2.1992-0.023438 4.3555-0.625 6.25-1.75l1.125-0.875 112.5-65.125c3.8438-2.2188 6.2227-6.3125 6.25-10.75v-131.12c0.28906-4.2383-1.5938-8.3359-5-10.875zm-132.75 186.12-88.875-51.375v-102.25l88.875 51.375zm12.5-124-89.25-51.5 89.25-51.125 89.25 51.5zm101.38 72.625-88.875 51.375v-102.25l88.875-51.375z"/>
  <path d="m55.125 474.25 112.5 65.125c0.35156 0.32031 0.72656 0.61328 1.125 0.875 1.9062 1.0781 4.0586 1.6406 6.25 1.625 2.1914 0.015625 4.3438-0.54688 6.25-1.625 0.39844-0.26172 0.77344-0.55469 1.125-0.875l112.5-65.125c3.8828-2.2422 6.2695-6.3906 6.25-10.875v-131.12c-0.027344-4.4375-2.4062-8.5312-6.25-10.75-0.78516-0.4375-1.6289-0.77344-2.5-1l-112.5-64.75c-3.8672-2.2344-8.6328-2.2344-12.5 0l-112.25 65.5c-3.8828 2.2422-6.2695 6.3906-6.25 10.875v131.25c-0.019531 4.4844 2.3672 8.6328 6.25 10.875zm222-18-89 51.25v-102.25l89-51.25zm-102.12-175.25 89.25 51.5-88.625 51.125-89.25-51.5zm-101.12 73 88.625 51.25v102.25l-88.625-51.25z"/>
  <path d="m302.12 851.25v-131.12c-0.027344-4.4375-2.4062-8.5312-6.25-10.75l-2.5-1.125-112.5-64.625c-3.8672-2.2344-8.6328-2.2344-12.5 0l-113.25 65.5c-3.8828 2.2422-6.2695 6.3906-6.25 10.875v131.25c-0.019531 4.4844 2.3672 8.6328 6.25 10.875l112.5 65.125c0.35156 0.32031 0.72656 0.61328 1.125 0.875 1.9062 1.0781 4.0586 1.6406 6.25 1.625 2.1914 0.015625 4.3438-0.54688 6.25-1.625 0.39844-0.26172 0.77344-0.55469 1.125-0.875l112.5-65.125c4.2695-1.9727 7.0703-6.1758 7.25-10.875zm-139.62 44.125-89-51.25v-102.25l89 51.25zm12.5-123.88-88.625-51.5 88.625-51.125 89.25 51.5zm101.5 72.625-89 51.25v-102.25l89-51.25z"/>
  <path d="m1176 332.12c0.019531-4.4844-2.3672-8.6328-6.25-10.875l-113.62-65.5c-3.8672-2.2344-8.6328-2.2344-12.5 0l-112.5 64.75c-0.87891 0.20312-1.7227 0.53906-2.5 1-3.8438 2.2188-6.2227 6.3125-6.25 10.75v131.12c-0.019531 4.4844 2.3672 8.6328 6.25 10.875l112.5 65.125 1 0.875c1.9062 1.0781 4.0586 1.6406 6.25 1.625 2.1914 0.015625 4.3438-0.54688 6.25-1.625l1.125-0.875 112.5-65.125c3.8828-2.2422 6.2695-6.3906 6.25-10.875v-131.12zm-139.38 175-88.875-51.25v-101.88l88.875 51.25zm12.5-123.88-88.5-50.75 89.375-51.5 88.625 51.125zm101.88 72.625-88.5 51.625v-102.25l89-51.25z"/>
  <path d="m1169.8 709.12-113.62-65.5c-3.8672-2.2344-8.6328-2.2344-12.5 0l-112.5 64.625c-0.86719 0.29688-1.7031 0.67578-2.5 1.125-3.8438 2.2188-6.2227 6.3125-6.25 10.75v131.12c-0.019531 4.4844 2.3672 8.6328 6.25 10.875l112.5 65.125 1 0.875c1.9062 1.0781 4.0586 1.6406 6.25 1.625 2.1914 0.015625 4.3438-0.54688 6.25-1.625l1.125-0.875 112.5-65.125c3.8828-2.2422 6.2695-6.3906 6.25-10.875v-131.12c0.39062-4.2344-1.3984-8.3789-4.75-11zm-133.12 186.25-88.875-51.25v-102.25l88.875 51.25zm12.5-123.88-88.5-51.125 89.375-51.5 88.625 51.125zm101.88 72.625-88.5 51.25v-102.25l89-51.25z"/>
  <path d="m852.75 233c0.9375 0.57812 2.0234 0.88281 3.125 0.875 3.1367 0.03125 5.8086-2.2617 6.2539-5.3672 0.44141-3.1055-1.4844-6.0547-4.5039-6.9023-3.0195-0.84375-6.1992 0.67969-7.4297 3.5625-1.2344 2.8828-0.14062 6.2305 2.5547 7.832z"/>
  <path d="m787.5 195.5c0.92578 0.60547 2.0195 0.91406 3.125 0.875 2.2266-0.03125 4.2656-1.2422 5.3594-3.1797 1.0898-1.9414 1.0703-4.3125-0.054687-6.2305-1.1289-1.9219-3.1875-3.0977-5.4141-3.0898s-4.2773 1.1992-5.3906 3.125c-0.84375 1.4336-1.0703 3.1523-0.62109 4.7539 0.44922 1.6055 1.5312 2.957 2.9961 3.7461z"/>
  <path d="m939.38 283c0.93359 0.59375 2.0195 0.89844 3.125 0.875 3.1367 0.03125 5.8086-2.2617 6.2539-5.3672 0.44141-3.1055-1.4844-6.0547-4.5039-6.9023-3.0195-0.84375-6.1992 0.67969-7.4297 3.5625-1.2344 2.8828-0.14062 6.2305 2.5547 7.832z"/>
  <path d="m896 258c0.9375 0.57812 2.0234 0.88281 3.125 0.875 2.3047 0.10938 4.4844-1.0625 5.6641-3.0469 1.1836-1.9844 1.1719-4.457-0.023437-6.4336-1.1953-1.9766-3.3828-3.1289-5.6914-3.0039-2.3047 0.12891-4.3516 1.5156-5.3242 3.6094-1.3281 2.8555-0.375 6.2539 2.25 8z"/>
  <path d="m831.12 220.5c0.93359 0.59375 2.0195 0.89844 3.125 0.875 2.8047-0.027344 5.2461-1.9219 5.9727-4.6289 0.72656-2.707-0.4375-5.5664-2.8477-6.9961-1.4297-1.0391-3.2344-1.4258-4.9648-1.0625-1.7305 0.36719-3.2266 1.4453-4.1133 2.9766-0.89062 1.5273-1.0898 3.3633-0.55078 5.0469 0.53906 1.6836 1.7656 3.0625 3.3789 3.7891z"/>
  <path d="m917.75 270.5c0.92578 0.60547 2.0195 0.91406 3.125 0.875 2.8047-0.027344 5.2461-1.9219 5.9727-4.6289 0.72656-2.707-0.4375-5.5664-2.8477-6.9961-1.4297-1.0391-3.2344-1.4258-4.9648-1.0625-1.7305 0.36719-3.2266 1.4453-4.1133 2.9766-0.89062 1.5273-1.0898 3.3633-0.55078 5.0469 0.53906 1.6836 1.7656 3.0625 3.3789 3.7891z"/>
  <path d="m875 245.5c0.9375 0.57812 2.0234 0.88281 3.125 0.875 2.25-0.019531 4.332-1.2031 5.5-3.125 1.6133-3.0117 0.56641-6.7617-2.375-8.5-2.9219-1.3203-6.3672-0.21484-7.9766 2.5547-1.6133 2.7695-0.86719 6.3086 1.7266 8.1953z"/>
  <path d="m766.12 183c0.9375 0.57812 2.0234 0.88281 3.125 0.875 2.2344 0.039062 4.3047-1.1641 5.375-3.125 1.2852-2.1836 1.125-4.9258-0.40625-6.9453-1.5312-2.0195-4.1289-2.9141-6.5781-2.2656-2.4492 0.64844-4.2656 2.7109-4.5977 5.2227s0.88672 4.9766 3.082 6.2383z"/>
  <path d="m809.5 208c0.93359 0.59375 2.0195 0.89844 3.125 0.875 2.8047-0.027344 5.2461-1.9219 5.9727-4.6289 0.72656-2.707-0.4375-5.5664-2.8477-6.9961-1.4297-1.0391-3.2344-1.4258-4.9648-1.0625-1.7305 0.36719-3.2266 1.4453-4.1133 2.9766-0.89062 1.5273-1.0898 3.3633-0.55078 5.0469 0.53906 1.6836 1.7656 3.0625 3.3789 3.7891z"/>
  <path d="m961 295.5c0.93359 0.59375 2.0195 0.89844 3.125 0.875 3.1367 0.03125 5.8086-2.2617 6.2539-5.3672 0.44141-3.1055-1.4844-6.0547-4.5039-6.9023-3.0195-0.84375-6.1992 0.67969-7.4297 3.5625-1.2344 2.8828-0.14062 6.2305 2.5547 7.832z"/>
  <path d="m744.5 170.5c0.9375 0.57812 2.0234 0.88281 3.125 0.875 3.1367 0.03125 5.8086-2.2617 6.2539-5.3672 0.44141-3.1055-1.4844-6.0547-4.5039-6.9023-3.0195-0.84375-6.1992 0.67969-7.4297 3.5625-1.2344 2.8828-0.14062 6.2305 2.5547 7.832z"/>
  <path d="m1049.2 586.12c1.6797 0 3.2891-0.67578 4.4648-1.875 1.1758-1.1992 1.8203-2.8203 1.7852-4.5 0-1.6445-0.66016-3.2227-1.8398-4.375-1.1758-1.1523-2.7656-1.7852-4.4102-1.75-3.4023 0-6.1836 2.7227-6.25 6.125 0 3.4727 2.7773 6.3086 6.25 6.375z"/>
  <path d="m1049.2 561c1.6445 0.035156 3.2344-0.59766 4.4102-1.75 1.1797-1.1523 1.8398-2.7305 1.8398-4.375 0.035156-1.6797-0.60938-3.3008-1.7852-4.5-1.1758-1.1992-2.7852-1.875-4.4648-1.875-3.4727 0.066406-6.25 2.9023-6.25 6.375 0.066406 3.4023 2.8477 6.125 6.25 6.125z"/>
  <path d="m1049.2 636c3.4531 0 6.25-2.7969 6.25-6.25s-2.7969-6.25-6.25-6.25-6.25 2.7969-6.25 6.25 2.7969 6.25 6.25 6.25z"/>
  <path d="m1049.2 611.12c2.9766-0.59766 5.1172-3.2148 5.1172-6.25s-2.1406-5.6523-5.1172-6.25c-2.9766 0.59766-5.1172 3.2148-5.1172 6.25s2.1406 5.6523 5.1172 6.25z"/>
  <path d="m745 1012.5c-2.4102 1.4297-3.5742 4.2891-2.8477 6.9961 0.72656 2.707 3.168 4.6016 5.9727 4.6289 1.1016 0.007812 2.1875-0.29688 3.125-0.875 2.5938-1.8867 3.3398-5.4258 1.7266-8.1953-1.6094-2.7695-5.0547-3.875-7.9766-2.5547z"/>
  <path d="m896.5 925c-1.4453 0.8125-2.5 2.1719-2.9219 3.7734-0.42578 1.6016-0.18359 3.3086 0.67188 4.7266 1.1328 1.9609 3.2344 3.1562 5.5 3.125 1.0664 0.019531 2.1133-0.28516 3-0.875 1.6133-0.72656 2.8398-2.1055 3.3789-3.7891 0.53906-1.6836 0.33984-3.5195-0.55078-5.0469-0.88672-1.5312-2.3828-2.6094-4.1133-2.9766-1.7305-0.36328-3.5352 0.023438-4.9648 1.0625z"/>
  <path d="m766.62 1e3c-2.4102 1.4297-3.5742 4.2891-2.8477 6.9961 0.72656 2.707 3.168 4.6016 5.9727 4.6289 1.1055 0.023438 2.1914-0.28125 3.125-0.875 2.5938-1.8867 3.3398-5.4258 1.7266-8.1953-1.6094-2.7695-5.0547-3.875-7.9766-2.5547z"/>
  <path d="m875 937.5c-2.4102 1.4297-3.5742 4.2891-2.8477 6.9961 0.72656 2.707 3.168 4.6016 5.9727 4.6289 1.1055 0.023438 2.1914-0.28125 3.125-0.875 1.6133-0.72656 2.8398-2.1055 3.3789-3.7891 0.53906-1.6836 0.33984-3.5195-0.55078-5.0469-0.88672-1.5312-2.3828-2.6094-4.1133-2.9766-1.7305-0.36328-3.5352 0.023438-4.9648 1.0625z"/>
  <path d="m939.88 900c-3 1.6953-4.0625 5.4961-2.375 8.5 1.1523 1.9414 3.2422 3.1289 5.5 3.125 1.1016 0.007812 2.1875-0.29688 3.125-0.875 1.6133-0.72656 2.8398-2.1055 3.3789-3.7891 0.53906-1.6836 0.33984-3.5195-0.55078-5.0469-0.88672-1.5312-2.3828-2.6094-4.1133-2.9766-1.7305-0.36328-3.5352 0.023438-4.9648 1.0625z"/>
  <path d="m918.25 912.5c-2.4102 1.4297-3.5742 4.2891-2.8477 6.9961 0.72656 2.707 3.168 4.6016 5.9727 4.6289 1.0664 0.019531 2.1133-0.28516 3-0.875 2.9688-1.6914 4.0039-5.4688 2.3125-8.4375s-5.4688-4.0039-8.4375-2.3125z"/>
  <path d="m831.62 962.5c-2.4102 1.4297-3.5742 4.2891-2.8477 6.9961 0.72656 2.707 3.168 4.6016 5.9727 4.6289 1.1016 0.007812 2.1875-0.29688 3.125-0.875 2.5938-1.8867 3.3398-5.4258 1.7266-8.1953-1.6094-2.7695-5.0547-3.875-7.9766-2.5547z"/>
  <path d="m853.25 950c-2.4102 1.4297-3.5742 4.2891-2.8477 6.9961 0.72656 2.707 3.168 4.6016 5.9727 4.6289 1.1016 0.007812 2.1875-0.29688 3.125-0.875 2.5938-1.8867 3.3398-5.4258 1.7266-8.1953-1.6094-2.7695-5.0547-3.875-7.9766-2.5547z"/>
  <path d="m810 975c-1.4648 0.78906-2.5469 2.1406-2.9961 3.7461-0.44922 1.6016-0.22266 3.3203 0.62109 4.7539 1.1328 1.9609 3.2344 3.1562 5.5 3.125 1.1016 0.007812 2.1875-0.29688 3.125-0.875 2.9531-1.7383 3.957-5.5273 2.25-8.5-1.7383-2.9531-5.5273-3.957-8.5-2.25z"/>
  <path d="m788.25 987.5c-2.4102 1.4297-3.5742 4.2891-2.8477 6.9961 0.72656 2.707 3.168 4.6016 5.9727 4.6289 1.1055 0.023438 2.1914-0.28125 3.125-0.875 1.6133-0.72656 2.8398-2.1055 3.3789-3.7891 0.53906-1.6836 0.33984-3.5195-0.55078-5.0469-0.88672-1.5312-2.3828-2.6094-4.1133-2.9766-1.7305-0.36328-3.5352 0.023438-4.9648 1.0625z"/>
  <path d="m961.5 887.5c-2.4102 1.4297-3.5742 4.2891-2.8477 6.9961 0.72656 2.707 3.168 4.6016 5.9727 4.6289 1.1055 0.023438 2.1914-0.28125 3.125-0.875 2.5938-1.8867 3.3398-5.4258 1.7266-8.1953-1.6094-2.7695-5.0547-3.875-7.9766-2.5547z"/>
  <path d="m350 937.5c-1.4297-1.0391-3.2344-1.4258-4.9648-1.0625-1.7305 0.36719-3.2266 1.4453-4.1133 2.9766-0.89062 1.5273-1.0898 3.3633-0.55078 5.0469 0.53906 1.6836 1.7656 3.0625 3.3789 3.7891 0.88672 0.58984 1.9336 0.89453 3 0.875 2.8281 0.027344 5.3203-1.8438 6.082-4.5664 0.75781-2.7227-0.40234-5.6172-2.832-7.0586z"/>
  <path d="m372 950c-1.4297-1.0391-3.2344-1.4258-4.9648-1.0625-1.7305 0.36719-3.2266 1.4453-4.1133 2.9766-0.89062 1.5273-1.0898 3.3633-0.55078 5.0469 0.53906 1.6836 1.7656 3.0625 3.3789 3.7891 0.93359 0.59375 2.0195 0.89844 3.125 0.875 2.8047-0.027344 5.2461-1.9219 5.9727-4.6289 0.72656-2.707-0.4375-5.5664-2.8477-6.9961z"/>
  <path d="m263.75 887.5c-1.4297-1.0391-3.2344-1.4258-4.9648-1.0625-1.7305 0.36719-3.2266 1.4453-4.1133 2.9766-0.89062 1.5273-1.0898 3.3633-0.55078 5.0469 0.53906 1.6836 1.7656 3.0625 3.3789 3.7891 0.93359 0.59375 2.0195 0.89844 3.125 0.875 2.8047-0.027344 5.2461-1.9219 5.9727-4.6289 0.72656-2.707-0.4375-5.5664-2.8477-6.9961z"/>
  <path d="m393.62 962.5c-1.4297-1.0391-3.2344-1.4258-4.9648-1.0625-1.7305 0.36719-3.2266 1.4453-4.1133 2.9766-0.89062 1.5273-1.0898 3.3633-0.55078 5.0469 0.53906 1.6836 1.7656 3.0625 3.3789 3.7891 0.93359 0.59375 2.0195 0.89844 3.125 0.875 2.8047-0.027344 5.2461-1.9219 5.9727-4.6289 0.72656-2.707-0.4375-5.5664-2.8477-6.9961z"/>
  <path d="m328.62 925c-1.4297-1.0391-3.2344-1.4258-4.9648-1.0625-1.7305 0.36719-3.2266 1.4453-4.1133 2.9766-0.89062 1.5273-1.0898 3.3633-0.55078 5.0469 0.53906 1.6836 1.7656 3.0625 3.3789 3.7891 0.9375 0.57812 2.0234 0.88281 3.125 0.875 2.2578 0.003906 4.3477-1.1836 5.5-3.125 0.84375-1.4336 1.0703-3.1523 0.62109-4.7539-0.44922-1.6055-1.5312-2.957-2.9961-3.7461z"/>
  <path d="m307 912.5c-1.4297-1.0391-3.2344-1.4258-4.9648-1.0625-1.7305 0.36719-3.2266 1.4453-4.1133 2.9766-0.89062 1.5273-1.0898 3.3633-0.55078 5.0469 0.53906 1.6836 1.7656 3.0625 3.3789 3.7891 0.9375 0.57812 2.0234 0.88281 3.125 0.875 2.8047-0.027344 5.2461-1.9219 5.9727-4.6289 0.72656-2.707-0.4375-5.5664-2.8477-6.9961z"/>
  <path d="m415.25 975c-1.4297-1.0391-3.2344-1.4258-4.9648-1.0625-1.7305 0.36719-3.2266 1.4453-4.1133 2.9766-0.89062 1.5273-1.0898 3.3633-0.55078 5.0469 0.53906 1.6836 1.7656 3.0625 3.3789 3.7891 0.9375 0.57812 2.0234 0.88281 3.125 0.875 2.8047-0.027344 5.2461-1.9219 5.9727-4.6289 0.72656-2.707-0.4375-5.5664-2.8477-6.9961z"/>
  <path d="m285.38 900c-1.4297-1.0391-3.2344-1.4258-4.9648-1.0625-1.7305 0.36719-3.2266 1.4453-4.1133 2.9766-0.89062 1.5273-1.0898 3.3633-0.55078 5.0469 0.53906 1.6836 1.7656 3.0625 3.3789 3.7891 0.93359 0.59375 2.0195 0.89844 3.125 0.875 2.8047-0.027344 5.2461-1.9219 5.9727-4.6289 0.72656-2.707-0.4375-5.5664-2.8477-6.9961z"/>
  <path d="m458.62 1e3c-1.4297-1.0391-3.2344-1.4258-4.9648-1.0625-1.7305 0.36719-3.2266 1.4453-4.1133 2.9766-0.89062 1.5273-1.0898 3.3633-0.55078 5.0469 0.53906 1.6836 1.7656 3.0625 3.3789 3.7891 0.92578 0.60547 2.0195 0.91406 3.125 0.875 2.8047-0.027344 5.2461-1.9219 5.9727-4.6289 0.72656-2.707-0.4375-5.5664-2.8477-6.9961z"/>
  <path d="m437.5 987.5c-1.4297-1.0391-3.2344-1.4258-4.9648-1.0625-1.7305 0.36719-3.2266 1.4453-4.1133 2.9766-0.89062 1.5273-1.0898 3.3633-0.55078 5.0469 0.53906 1.6836 1.7656 3.0625 3.3789 3.7891 0.9375 0.57812 2.0234 0.88281 3.125 0.875 2.8047-0.027344 5.2461-1.9219 5.9727-4.6289 0.72656-2.707-0.4375-5.5664-2.8477-6.9961z"/>
  <path d="m480.25 1012.5c-1.4297-1.0391-3.2344-1.4258-4.9648-1.0625-1.7305 0.36719-3.2266 1.4453-4.1133 2.9766-0.89062 1.5273-1.0898 3.3633-0.55078 5.0469 0.53906 1.6836 1.7656 3.0625 3.3789 3.7891 0.93359 0.59375 2.0195 0.89844 3.125 0.875 2.8047-0.027344 5.2461-1.9219 5.9727-4.6289 0.72656-2.707-0.4375-5.5664-2.8477-6.9961z"/>
  <path d="m181.75 604.25c0 3.4531-2.7969 6.25-6.25 6.25s-6.25-2.7969-6.25-6.25 2.7969-6.25 6.25-6.25 6.25 2.7969 6.25 6.25"/>
  <path d="m181.75 554.25c0 3.4531-2.7969 6.25-6.25 6.25s-6.25-2.7969-6.25-6.25 2.7969-6.25 6.25-6.25 6.25 2.7969 6.25 6.25"/>
  <path d="m181.75 629.25c0 3.4531-2.7969 6.25-6.25 6.25s-6.25-2.7969-6.25-6.25 2.7969-6.25 6.25-6.25 6.25 2.7969 6.25 6.25"/>
  <path d="m181.75 579.25c0 3.4531-2.7969 6.25-6.25 6.25s-6.25-2.7969-6.25-6.25 2.7969-6.25 6.25-6.25 6.25 2.7969 6.25 6.25"/>
  <path d="m260.5 296.38c1.125 0.007812 2.2383-0.25 3.25-0.75 2.9688-1.7852 3.9688-5.6172 2.25-8.625-1.1133-1.9258-3.1641-3.1172-5.3906-3.125s-4.2852 1.168-5.4141 3.0898c-1.125 1.918-1.1445 4.2891-0.054687 6.2305 1.0938 1.9375 3.1328 3.1484 5.3594 3.1797z"/>
  <path d="m282.12 283.88c1.0859 0.003906 2.1602-0.25391 3.125-0.75 3.0039-1.7266 4.0391-5.5586 2.3125-8.5625s-5.5586-4.0391-8.5625-2.3125c-2.4102 1.4297-3.5742 4.2891-2.8477 6.9961 0.72656 2.707 3.168 4.6016 5.9727 4.6289z"/>
  <path d="m412.5 209.12c1.0938-0.054688 2.1602-0.35547 3.125-0.875 2.9531-1.7383 3.957-5.5273 2.25-8.5-1.7383-2.9414-5.4883-3.9883-8.5-2.375-2.957 1.7852-4.0039 5.5742-2.375 8.625 1.1523 1.9414 3.2422 3.1289 5.5 3.125z"/>
  <path d="m368.62 234c1.0859-0.007812 2.1523-0.26562 3.125-0.75 2.9688-1.7852 3.9688-5.6172 2.25-8.625-1.1172-1.9375-3.1875-3.1289-5.4219-3.125-2.2383 0.003906-4.3008 1.2031-5.4141 3.1406-1.1094 1.9414-1.1016 4.3281 0.023438 6.2578 1.1289 1.9336 3.2031 3.1133 5.4375 3.1016z"/>
  <path d="m433.5 196.62c1.1016 0.007812 2.1875-0.29688 3.125-0.875 1.6133-0.72656 2.8398-2.1055 3.3789-3.7891 0.53906-1.6836 0.33984-3.5195-0.55078-5.0469-0.88672-1.5312-2.3828-2.6094-4.1133-2.9766-1.7305-0.36328-3.5352 0.023438-4.9648 1.0625-1.4648 0.78906-2.5469 2.1406-2.9961 3.7461-0.44922 1.6016-0.22266 3.3203 0.62109 4.7539 1.1328 1.9609 3.2344 3.1562 5.5 3.125z"/>
  <path d="m390.25 221.5c1.0859-0.007812 2.1523-0.26562 3.125-0.75 2.1719-1.2695 3.3711-3.7148 3.043-6.207-0.32422-2.4922-2.1133-4.5469-4.5391-5.2148-2.4219-0.66797-5.0117 0.18359-6.5664 2.1562-1.5547 1.9766-1.7773 4.6914-0.5625 6.8906 1.168 1.9219 3.25 3.1055 5.5 3.125z"/>
  <path d="m347 246.5c1.1016 0.007812 2.1875-0.29688 3.125-0.875 2.6289-1.5781 3.6836-4.8594 2.4688-7.6758-1.2148-2.8164-4.3242-4.3008-7.2734-3.4727-2.9531 0.82813-4.8398 3.7109-4.418 6.7461 0.42578 3.0391 3.0312 5.293 6.0977 5.2773z"/>
  <path d="m303.75 271.5c1.1055 0.023438 2.1914-0.28125 3.125-0.875 2.9414-1.7383 3.9883-5.4883 2.375-8.5-1.7852-2.957-5.5742-4.0039-8.625-2.375-2.9688 1.7852-3.9688 5.6172-2.25 8.625 1.1094 1.9219 3.1562 3.1133 5.375 3.125z"/>
  <path d="m476.75 171.62c1.0469-0.011719 2.0742-0.26562 3-0.75 2.957-1.7852 4.0039-5.5742 2.375-8.625-1.7852-2.9688-5.6172-3.9688-8.625-2.25-1.4453 0.8125-2.5 2.1719-2.9219 3.7734-0.42578 1.6016-0.18359 3.3086 0.67188 4.7266 1.1328 1.9609 3.2344 3.1562 5.5 3.125z"/>
  <path d="m325 259c1.1055 0.023438 2.1914-0.28125 3.125-0.875 2.6289-1.5781 3.6836-4.8594 2.4688-7.6758-1.2148-2.8164-4.3242-4.3008-7.2734-3.4727-2.9531 0.82813-4.8398 3.7109-4.418 6.7461 0.42578 3.0391 3.0312 5.293 6.0977 5.2773z"/>
  <path d="m455.12 184.12c1.0664 0.019531 2.1133-0.28516 3-0.875 2.6367-1.5859 3.6875-4.8867 2.4531-7.7031-1.2344-2.8203-4.3711-4.2852-7.3281-3.4258-2.9531 0.86328-4.8086 3.7852-4.3359 6.8242 0.47656 3.043 3.1328 5.2578 6.2109 5.1797z"/>
  <path d="m315.25 463.88c-1.6094-0.41797-3.3164-0.17578-4.7461 0.66797-1.4297 0.84375-2.4688 2.2227-2.8789 3.832-0.87891 3.3125 1.0742 6.7109 4.375 7.625h1.625c2.832-0.042969 5.3086-1.9141 6.125-4.625 0.72266-3.2969-1.25-6.5859-4.5-7.5z"/>
  <path d="m460.12 503.12c-1.6094-0.49609-3.3516-0.30859-4.8164 0.51953s-2.5273 2.2227-2.9336 3.8555c-0.41797 1.6094-0.17578 3.3164 0.66797 4.7461 0.84375 1.4297 2.2227 2.4688 3.832 2.8789h1.5c3.4531 0.48438 6.6406-1.9219 7.125-5.375s-1.9219-6.6406-5.375-7.125z"/>
  <path d="m384.38 495.62h1.625c2.3516-0.015625 4.4961-1.3477 5.5508-3.4492 1.0547-2.1055 0.83594-4.6211-0.5625-6.5117-1.3945-1.8945-3.7383-2.8398-6.0586-2.4531-2.3164 0.38672-4.2227 2.0469-4.9297 4.2891-0.50391 1.6562-0.32422 3.4492 0.49609 4.9727 0.82031 1.5273 2.2188 2.6602 3.8789 3.1523z"/>
  <path d="m408.5 502.12h1.75c3.4531 0.41406 6.5859-2.0469 7-5.5s-2.0469-6.5859-5.5-7c-3.3125-0.87891-6.7109 1.0742-7.625 4.375-0.50391 1.6562-0.32422 3.4492 0.49609 4.9727 0.82031 1.5273 2.2188 2.6602 3.8789 3.1523z"/>
  <path d="m336.12 482.5h1.625c2.832-0.042969 5.3086-1.9141 6.125-4.625 0.41797-1.6094 0.17578-3.3164-0.66797-4.7461-0.84375-1.4297-2.2227-2.4688-3.832-2.8789-1.5938-0.45703-3.3008-0.25-4.7383 0.57422s-2.4766 2.1953-2.8867 3.8008c-0.5 1.625-0.3125 3.3828 0.51172 4.8672 0.82422 1.4883 2.2188 2.5742 3.8633 3.0078z"/>
  <path d="m360.25 489c0.53516 0.10938 1.0898 0.10938 1.625 0 2.8438-0.003906 5.3438-1.8906 6.125-4.625 0.41797-1.6094 0.17578-3.3164-0.66797-4.7461-0.84375-1.4297-2.2227-2.4688-3.832-2.8789-1.5938-0.45703-3.3008-0.25-4.7383 0.57422s-2.4766 2.1953-2.8867 3.8008c-0.5 1.625-0.3125 3.3828 0.51172 4.8672 0.82422 1.4883 2.2188 2.5742 3.8633 3.0078z"/>
  <path d="m436 496.5c-3.3789-0.875-6.8359 1.1328-7.75 4.5-0.41797 1.6094-0.17578 3.3164 0.66797 4.7461 0.84375 1.4297 2.2227 2.4688 3.832 2.8789h1.625c2.8125-0.015625 5.2695-1.9102 6-4.625 0.67188-3.25-1.2148-6.4844-4.375-7.5z"/>
  <path d="m612.5 366.75c-3.4531 0-6.25 2.7969-6.25 6.25s2.7969 6.25 6.25 6.25c1.6445 0 3.2227-0.66016 4.375-1.8398 1.1523-1.1758 1.7852-2.7656 1.75-4.4102 0.035156-1.6445-0.59766-3.2344-1.75-4.4102-1.1523-1.1797-2.7305-1.8398-4.375-1.8398z"/>
  <path d="m612.5 416.75c-3.4531 0-6.25 2.7969-6.25 6.25s2.7969 6.25 6.25 6.25 6.25-2.7969 6.25-6.25-2.7969-6.25-6.25-6.25z"/>
  <path d="m612.5 316.75c-3.4727 0-6.3086 2.7773-6.375 6.25 0 1.6562 0.66016 3.2461 1.832 4.418s2.7617 1.832 4.418 1.832c3.4531 0 6.25-2.7969 6.25-6.25s-2.7969-6.25-6.25-6.25z"/>
  <path d="m612.5 391.75c-3.4531 0-6.25 2.7969-6.25 6.25s2.7969 6.25 6.25 6.25 6.25-2.7969 6.25-6.25-2.7969-6.25-6.25-6.25z"/>
  <path d="m612.5 341.75c-3.4531 0-6.25 2.7969-6.25 6.25s2.7969 6.25 6.25 6.25 6.25-2.7969 6.25-6.25-2.7969-6.25-6.25-6.25z"/>
  <path d="m612.5 823.38c1.6445 0.035156 3.2344-0.59766 4.4102-1.75 1.1797-1.1523 1.8398-2.7305 1.8398-4.375 0-3.4531-2.7969-6.25-6.25-6.25s-6.25 2.7969-6.25 6.25c0.066406 3.4023 2.8477 6.125 6.25 6.125z"/>
  <path d="m612.5 848.38c2.5273 0 4.8086-1.5234 5.7734-3.8594 0.96875-2.3359 0.43359-5.0234-1.3555-6.8086-1.7852-1.7891-4.4727-2.3242-6.8086-1.3555-2.3359 0.96484-3.8594 3.2461-3.8594 5.7734 0 1.6562 0.66016 3.2461 1.832 4.418s2.7617 1.832 4.418 1.832z"/>
  <path d="m612.5 873.38c1.6445 0.035156 3.2344-0.59766 4.4102-1.75 1.1797-1.1523 1.8398-2.7305 1.8398-4.375 0.050781-2.5391-1.4375-4.8555-3.7695-5.8633-2.332-1.0078-5.0391-0.50391-6.8555 1.2734-1.8125 1.7773-2.3711 4.4766-1.4102 6.8281 0.96094 2.3477 3.2461 3.8867 5.7852 3.8867z"/>
  <path d="m612.5 773.38c3.4531 0 6.25-2.7969 6.25-6.25s-2.7969-6.25-6.25-6.25c-1.6445-0.035156-3.2344 0.59766-4.4102 1.75-1.1797 1.1523-1.8398 2.7305-1.8398 4.375-0.070312 1.6875 0.5625 3.332 1.7461 4.5391 1.1836 1.207 2.8125 1.8711 4.5039 1.8359z"/>
  <path d="m612.5 798.38c1.6445 0.035156 3.2344-0.59766 4.4102-1.75 1.1797-1.1523 1.8398-2.7305 1.8398-4.375 0-3.4531-2.7969-6.25-6.25-6.25s-6.25 2.7969-6.25 6.25c0.066406 3.4023 2.8477 6.125 6.25 6.125z"/>
  <path d="m612.5 748.38c3.4531 0 6.25-2.7969 6.25-6.25s-2.7969-6.25-6.25-6.25-6.25 2.7969-6.25 6.25 2.7969 6.25 6.25 6.25z"/>
  <path d="m306.38 708.12c-1.5703 0.51172-2.8711 1.6367-3.5977 3.1211-0.73047 1.4805-0.83203 3.1953-0.27734 4.7539 0.78516 2.5742 3.1836 4.3125 5.875 4.25h2c3.2461-1.1797 5.0039-4.6953 4-8-1.0742-3.3438-4.6523-5.1875-8-4.125z"/>
  <path d="m433 672.75c-1.125-3.2266-4.6328-4.9531-7.875-3.875-1.5938 0.48438-2.9219 1.6016-3.6758 3.0859-0.75781 1.4844-0.87109 3.2148-0.32422 4.7891 0.86719 2.5664 3.2891 4.2852 6 4.25h1.875c3.375-1.1797 5.1641-4.8672 4-8.25z"/>
  <path d="m452.75 672.88c1.6328-0.46484 3.0078-1.5781 3.8047-3.0742 0.79687-1.5 0.94922-3.2617 0.42187-4.875-0.52734-1.6133-1.6875-2.9453-3.2148-3.6836-1.5312-0.74219-3.293-0.82813-4.8867-0.24219-3.4531 0.51953-5.832 3.7344-5.3125 7.1875s3.7344 5.832 7.1875 5.3125c0.70312-0.070312 1.3828-0.28125 2-0.625z"/>
  <path d="m475 665.25c0.66016 0.12109 1.3398 0.12109 2 0 3.2305-1.125 4.9961-4.6016 4-7.875-1.0703-3.2773-4.5977-5.0664-7.875-4-3.4531 0.51953-5.832 3.7344-5.3125 7.1875s3.7344 5.832 7.1875 5.3125z"/>
  <path d="m330.12 700c-1.6562 0.26562-3.1406 1.1797-4.125 2.5391-0.98438 1.3594-1.3906 3.0547-1.125 4.7109 0.55078 3.4531 3.7969 5.8008 7.25 5.25 0.66016 0.11328 1.3398 0.11328 2 0 1.582-0.53906 2.8789-1.6875 3.6094-3.1914 0.72656-1.5039 0.82422-3.2344 0.26562-4.8086-0.375-1.6875-1.4414-3.1367-2.9414-3.9922-1.5-0.85937-3.293-1.043-4.9336-0.50781z"/>
  <path d="m409.25 680.62c-1.125-3.2305-4.6016-4.9961-7.875-4-3.2461 1.1797-5.0039 4.6953-4 8 0.86719 2.5664 3.2891 4.2852 6 4.25 0.62109 0.11719 1.2539 0.11719 1.875 0 1.6641-0.50781 3.043-1.6875 3.8008-3.25 0.75781-1.5664 0.83203-3.3789 0.19922-5z"/>
  <path d="m353.88 692.38c-1.6562 0.26562-3.1406 1.1797-4.125 2.5391-0.98438 1.3594-1.3906 3.0547-1.125 4.7109 0.55078 3.4531 3.7969 5.8008 7.25 5.25h1.875c1.5938-0.48438 2.9219-1.6016 3.6758-3.0859 0.75781-1.4844 0.87109-3.2148 0.32422-4.7891-0.37891-1.6875-1.4414-3.1445-2.9336-4.0234-1.4922-0.875-3.2812-1.0938-4.9414-0.60156z"/>
  <path d="m385.5 688.5c-0.46484-1.6328-1.5781-3.0078-3.0742-3.8047-1.5-0.79687-3.2617-0.94922-4.875-0.42187-1.6133 0.52734-2.9453 1.6875-3.6836 3.2148-0.74219 1.5312-0.82813 3.293-0.24219 4.8867 0.85547 2.5938 3.2695 4.3516 6 4.375h1.875c1.6875-0.47266 3.0898-1.6484 3.8555-3.2266 0.76562-1.5742 0.81641-3.4062 0.14453-5.0234z"/>
  <path d="m881.25 478.12c0.73047 2.7148 3.1875 4.6094 6 4.625h1.625c1.6094-0.41016 2.9883-1.4492 3.832-2.8789 0.84375-1.4297 1.0859-3.1367 0.66797-4.7461-0.89844-3.4531-4.4219-5.5234-7.875-4.625s-5.5234 4.4219-4.625 7.875z"/>
  <path d="m857.12 484.62c0.73047 2.7148 3.1875 4.6094 6 4.625 0.53516 0.13281 1.0898 0.13281 1.625 0 2.4492-0.64844 4.2656-2.7148 4.5938-5.2266 0.33203-2.5117-0.88672-4.9766-3.0859-6.2344-2.1953-1.2617-4.9375-1.0703-6.9414 0.48047-2 1.5547-2.8672 4.1641-2.1914 6.6055z"/>
  <path d="m813.25 490c-3.3203 0.96875-5.2578 4.4062-4.375 7.75 0.74219 2.6914 3.207 4.543 6 4.5h1.625c3.4531-0.89844 5.5234-4.4219 4.625-7.875s-4.4219-5.5234-7.875-4.625z"/>
  <path d="m837.5 483.5c-3.3008 0.91406-5.2539 4.3125-4.375 7.625 0.69141 2.7422 3.1719 4.6523 6 4.625h1.625c3.4531-0.89844 5.5234-4.4219 4.625-7.875s-4.4219-5.5234-7.875-4.625z"/>
  <path d="m913.12 476c3.3008-0.91406 5.2539-4.3125 4.375-7.625-0.89844-3.4531-4.4219-5.5234-7.875-4.625s-5.5234 4.4219-4.625 7.875c0.73047 2.7148 3.1875 4.6094 6 4.625z"/>
  <path d="m790.75 508.88h1.625c1.6055-0.41016 2.9766-1.4492 3.8008-2.8867s1.0312-3.1445 0.57422-4.7383c-0.41016-1.6094-1.4492-2.9883-2.8789-3.832-1.4297-0.84375-3.1367-1.0859-4.7461-0.66797-3.3203 0.96875-5.2578 4.4062-4.375 7.75 0.82422 2.6172 3.2578 4.3906 6 4.375z"/>
  <path d="m744.12 521.75c3.3203-0.96875 5.2578-4.4062 4.375-7.75-0.65625-2.5703-2.8945-4.4258-5.5391-4.5977-2.6484-0.16797-5.1055 1.3828-6.0859 3.8477-1.0156-1.6602-2.4336-3.0391-4.125-4-0.77734-0.46094-1.6211-0.79688-2.5-1l-112.5-64.75c-1.582-0.86328-3.3281-1.375-5.125-1.5h-2.125c-1.8477 0.054688-3.6523 0.57031-5.25 1.5l-113.5 65.5c-1.5625 0.98047-2.918 2.2539-4 3.75-0.79297-1.543-2.1992-2.6797-3.875-3.125-3.3438-0.88281-6.7812 1.0547-7.75 4.375-0.41797 1.6094-0.17578 3.3164 0.66797 4.7461 0.84375 1.4297 2.2227 2.4688 3.832 2.8789 0.53516 0.11719 1.0898 0.11719 1.625 0 1.168-0.050781 2.3008-0.44141 3.25-1.125v130.75c0.027344 4.4375 2.4062 8.5312 6.25 10.75l112.5 65.125 1.125 0.875c1.8945 1.125 4.0508 1.7266 6.25 1.75 2.1992-0.023438 4.3555-0.625 6.25-1.75l1.125-0.875 112.5-65.125c3.8438-2.2188 6.2227-6.3125 6.25-10.75v-130.62c1.0039 0.77734 2.2305 1.2148 3.5 1.25zm-144.12 173.62-88.875-51.375v-102.25l88.875 51.375zm12.5-124-89.25-51.5 89.25-51.125 89.25 51.5zm101.38 72.625-88.875 51.375v-102.25l88.875-51.375z"/>
  <path d="m768.25 515.12c3.4531-0.89844 5.5234-4.4219 4.625-7.875s-4.4219-5.5234-7.875-4.625c-1.6055 0.41016-2.9766 1.4492-3.8008 2.8867s-1.0312 3.1445-0.57422 4.7383c0.73047 2.7148 3.1875 4.6094 6 4.625z"/>
  <path d="m898.88 708.12c1.0703-3.4531-0.85938-7.1172-4.3125-8.1875s-7.1172 0.85938-8.1875 4.3125c-0.99609 3.2734 0.76953 6.75 4 7.875h2c2.8359 0.34375 5.5312-1.3164 6.5-4z"/>
  <path d="m875 700c0.54688-1.5742 0.43359-3.3047-0.32422-4.7891-0.75391-1.4844-2.082-2.6016-3.6758-3.0859-3.2773-1.0664-6.8047 0.72266-7.875 4-0.99609 3.2734 0.76953 6.75 4 7.875 0.66016 0.12109 1.3398 0.12109 2 0 2.6016 0.019531 4.9375-1.5742 5.875-4z"/>
  <path d="m776.25 661c-3.2305-0.92188-6.6133 0.875-7.6562 4.0703-1.043 3.1953 0.62891 6.6445 3.7812 7.8047 0.61719 0.12109 1.2578 0.12109 1.875 0 3.4531 0.55078 6.6992-1.7969 7.25-5.25s-1.7969-6.6992-5.25-7.25z"/>
  <path d="m847.5 684.5c-3.3047-1.0039-6.8203 0.75391-8 4-0.99609 3.2734 0.76953 6.75 4 7.875 0.66016 0.12109 1.3398 0.12109 2 0 3.4531 0.55078 6.6992-1.7969 7.25-5.25s-1.7969-6.6992-5.25-7.25z"/>
  <path d="m922.62 716c0.54688-1.5742 0.43359-3.3047-0.32422-4.7891-0.75391-1.4844-2.082-2.6016-3.6758-3.0859-3.2422-1.0781-6.75 0.64844-7.875 3.875-1.0039 3.3047 0.75391 6.8203 4 8h2c2.6094 0.054688 4.9688-1.5508 5.875-4z"/>
  <path d="m752.5 653.12c-3.4531-1.0703-7.1172 0.85938-8.1875 4.3125s0.85938 7.1172 4.3125 8.1875c0.66016 0.13281 1.3398 0.13281 2 0 3.4531 0.51953 6.668-1.8594 7.1875-5.3125s-1.8594-6.668-5.3125-7.1875z"/>
  <path d="m800 668.88c-1.5586-0.55469-3.2734-0.45312-4.7539 0.27734-1.4844 0.72656-2.6094 2.0273-3.1211 3.5977-0.55078 1.5898-0.4375 3.3359 0.31641 4.8438 0.75 1.5039 2.082 2.6445 3.6836 3.1562h1.875c3.4531 0.55078 6.6992-1.7969 7.25-5.25s-1.7969-6.6992-5.25-7.25z"/>
  <path d="m823.75 676.62c-3.2773-1.0664-6.8047 0.72266-7.875 4-0.55469 1.5586-0.45312 3.2734 0.27734 4.7539 0.72656 1.4844 2.0273 2.6094 3.5977 3.1211h2c2.7109 0.035156 5.1328-1.6836 6-4.25 0.78125-3.1875-0.93359-6.457-4-7.625z"/>
 </g>
</svg>
