<?xml version="1.0" encoding="UTF-8"?>
<svg width="1200pt" height="1200pt" version="1.1" viewBox="0 0 1200 1200" xmlns="http://www.w3.org/2000/svg">
 <g fill="#5403ba">
  <path d="m1091.8 546.19c0-130.44-51.816-255.53-144.05-347.77-92.234-92.23-217.33-144.05-347.77-144.05s-255.53 51.816-347.77 144.05c-92.23 92.234-144.05 217.33-144.05 347.77v107.34c0 130.44 51.816 255.53 144.05 347.77 92.234 92.23 217.33 144.05 347.77 144.05s255.53-51.816 347.77-144.05c92.23-92.234 144.05-217.33 144.05-347.77zm-491.81-463.41c122.98 0 240.92 48.852 327.88 135.81 86.961 86.957 135.81 204.9 135.81 327.88s-48.852 240.92-135.81 327.88c-86.957 86.961-204.9 135.81-327.88 135.81s-240.92-48.852-327.88-135.81c-86.961-86.957-135.81-204.9-135.81-327.88 0.14844-122.93 49.051-240.79 135.98-327.71 86.926-86.926 204.78-135.83 327.71-135.98zm304.5 920.34c-38.906 34.039-83.281 61.262-131.25 80.531v-77.062c47.32-17.91 91.594-43.02 131.25-74.438zm-609.38-70.969c39.656 31.418 83.93 56.527 131.25 74.438v77.062c-47.969-19.27-92.344-46.492-131.25-80.531zm159.38 84.375c42.574 13.094 86.727 20.348 131.25 21.562v79.031c-44.629-1.2734-88.84-9.0078-131.25-22.969zm159.38 21.562c44.523-1.2148 88.676-8.4688 131.25-21.562v77.625c-42.41 13.961-86.621 21.695-131.25 22.969zm-471.94-313.03c27.34 69.809 70.238 132.46 125.44 183.19v68.156c-66.77-68.812-110.59-156.62-125.44-251.34zm790.69 251.34v-68.156c55.172-50.754 98.066-113.4 125.44-183.19-14.848 94.727-58.668 182.53-125.44 251.34z"/>
  <path d="m600 963c110.54-0.050781 216.52-44.004 294.65-122.19 78.133-78.191 122-184.21 121.97-294.75s-43.969-216.53-122.15-294.67c-78.176-78.141-184.19-122.03-294.73-122.02s-216.54 43.938-294.69 122.11c-78.152 78.164-122.06 184.17-122.06 294.71 0.14844 110.53 44.137 216.49 122.31 294.63 78.176 78.141 184.16 122.08 294.69 122.18zm0-805.5c103.07 0.050781 201.91 41.039 274.77 113.95s113.77 171.79 113.73 274.86-41.008 201.92-113.91 274.79c-72.902 72.867-171.77 113.79-274.84 113.78s-201.92-40.977-274.8-113.87c-72.879-72.891-113.82-171.75-113.82-274.82 0.125-103.08 41.141-201.9 114.05-274.77 72.906-72.871 171.75-113.84 274.83-113.91z"/>
  <path d="m398.44 525 194.53 112.5c4.3555 2.4922 9.707 2.4922 14.062 0l194.53-112.5c3.3672-1.9414 5.7812-5.1875 6.668-8.9688 0.88672-3.7852 0.17188-7.7656-1.9805-11l-194.44-290.62c-2.582-3.9297-6.9688-6.293-11.672-6.293s-9.0898 2.3633-11.672 6.293l-194.72 290.62c-2.1523 3.2344-2.8672 7.2148-1.9805 11 0.88672 3.7812 3.3008 7.0273 6.668 8.9688zm215.62 76.219v-333l160.41 239.91zm-28.125-333v333l-160.41-93.094z"/>
  <path d="m787.5 581.25-187.5 117-187.03-117c-5.6562-3.2773-12.824-2.2227-17.301 2.543-4.4766 4.7656-5.0742 11.984-1.4492 17.426l194.25 277.31c2.6797 3.6914 6.9688 5.8789 11.531 5.8789s8.8516-2.1875 11.531-5.8789l194.72-277.12c3.8438-5.4375 3.3477-12.82-1.1875-17.695-4.5352-4.8711-11.863-5.9023-17.562-2.4609zm-201.56 141.38v103.12l-129.09-183.75zm28.125 103.12v-103.12l129.09-80.625z"/>
 </g>
</svg>
