<?xml version="1.0" encoding="UTF-8"?>
<svg width="1200pt" height="1200pt" version="1.1" viewBox="0 0 1200 1200" xmlns="http://www.w3.org/2000/svg">
 <g fill="#5403ba">
  <path d="m588 786h24v120h-24z"/>
  <path d="m530.76 785.4 18.477 15.363 50.762-60.961 50.762 60.961 18.477-15.363-69.238-83.039z"/>
  <path d="m588 936h24v36h-24z"/>
  <path d="m588 996h24v36h-24z"/>
  <path d="m924 552h-168v-108h-144v-48c41.234-4.1445 77.414-29.273 95.695-66.469 18.281-37.191 16.074-81.188-5.832-116.37-21.91-35.18-60.418-56.562-101.86-56.562s-79.953 21.383-101.86 56.562c-21.906 35.18-24.113 79.176-5.832 116.37 18.281 37.195 54.461 62.324 95.695 66.469v48h-144v108h-168v-108h-180v24h156v252h-156v24h180v-168h168v168h60v-24h-36v-252h264v252h-36v24h60v-168h168v168h180v-24h-156v-252h156v-24h-180zm-420-276c0-25.461 10.113-49.879 28.117-67.883 18.004-18.004 42.422-28.117 67.883-28.117s49.879 10.113 67.883 28.117c18.004 18.004 28.117 42.422 28.117 67.883s-10.113 49.879-28.117 67.883c-18.004 18.004-42.422 28.117-67.883 28.117s-49.879-10.113-67.883-28.117c-18.004-18.004-28.117-42.422-28.117-67.883z"/>
  <path d="m516 504h168v24h-168z"/>
  <path d="m516 552h168v24h-168z"/>
  <path d="m516 606.48h168v24h-168z"/>
  <path d="m1001.5 504h102.48v24h-102.48z"/>
  <path d="m1001.5 552h102.48v24h-102.48z"/>
  <path d="m1001.5 600h102.48v24h-102.48z"/>
  <path d="m96 504h102.48v24h-102.48z"/>
  <path d="m96 552h102.48v24h-102.48z"/>
  <path d="m96 600h102.48v24h-102.48z"/>
  <path d="m648.12 230.04-57.121 60.961-29.398-20.16-13.562 19.801 46.441 31.918 71.16-76.078z"/>
 </g>
</svg>
