<?xml version="1.0" encoding="UTF-8"?>
<svg width="1200pt" height="1200pt" version="1.1" viewBox="0 0 1200 1200" xmlns="http://www.w3.org/2000/svg">
 <g fill="#188fff">
  <path d="m600.28 241.69c-1.5469 0-3.1094-0.40625-4.5-1.2109l-44.941-25.945c-2.7852-1.6094-4.5-4.5703-4.5-7.7891v-51.898c0-3.2148 1.7148-6.1914 4.5-7.7891l44.941-25.945c2.7852-1.6094 6.2148-1.6094 9 0l44.941 25.945c2.7852 1.6094 4.5 4.5703 4.5 7.7891v51.898c0 3.2148-1.7148 6.1914-4.5 7.7891l-44.941 25.945c-1.3945 0.80469-2.9531 1.2109-4.5 1.2109zm-35.941-40.141 35.941 20.746 35.941-20.746v-41.508l-35.941-20.746-35.941 20.746z"/>
  <path d="m928.93 378.27c-1.5234 0-3.0703-0.38281-4.4883-1.2109l-5.1953-3c-4.3086-2.4961-5.7734-7.9922-3.2891-12.301 2.4727-4.2969 7.9805-5.7734 12.289-3.2891l5.1953 3c4.3086 2.4961 5.7734 7.9922 3.2891 12.301-1.6602 2.8906-4.6836 4.5-7.8008 4.5zm-46.766-27c-1.5234 0-3.0703-0.38281-4.4883-1.2109l-20.773-12c-0.011719 0-0.023438-0.011719-0.023438-0.011719l-5.1836-2.9883c-4.2969-2.4844-5.7734-7.9922-3.2891-12.289 2.4727-4.2969 7.9805-5.7852 12.289-3.3008l5.207 3c0.011719 0.011718 0.023438 0.011718 0.035156 0.023437l20.746 11.988c4.2969 2.4844 5.7734 7.9922 3.2891 12.289-1.6758 2.8906-4.6992 4.5-7.8086 4.5zm-67.547-39c-1.5234 0-3.0703-0.38281-4.4883-1.2109l-20.773-12-5.207-3c-4.2969-2.4844-5.7734-7.9922-3.2891-12.289s7.9688-5.7852 12.289-3.3008l5.207 3s0.011719 0.011718 0.023437 0.011718l20.746 11.988c4.2969 2.4844 5.7734 7.9922 3.2891 12.289-1.6641 2.9023-4.6797 4.5117-7.7969 4.5117zm-67.551-39c-1.5234 0-3.0703-0.38281-4.4883-1.2109l-20.762-12c-0.011718 0-0.023437 0-0.023437-0.011719l-5.1953-3c-4.3086-2.4961-5.7734-7.9922-3.2891-12.301 2.4727-4.2852 7.9805-5.7852 12.289-3.2891l5.1953 3c0.011719 0 0.011719 0 0.023437 0.011719l20.762 12c4.2969 2.4844 5.7734 7.9922 3.2891 12.289-1.6562 2.9023-4.6797 4.5117-7.8008 4.5117zm-67.547-39.012c-1.5234 0-3.0703-0.38281-4.4883-1.2109l-20.762-11.988c-0.011719 0-0.011719-0.011719-0.023438-0.011719l-5.1953-3c-4.3086-2.4961-5.7734-7.9922-3.2891-12.301 2.4727-4.2852 7.9688-5.7852 12.289-3.2891l5.1953 3 20.785 12c4.2969 2.4844 5.7734 7.9922 3.2891 12.289-1.6562 2.9023-4.6797 4.5117-7.8008 4.5117z"/>
  <path d="m972.14 787.78c-4.9688 0-9-4.0312-9-9v-6c0-4.9688 4.0312-9 9-9s9 4.0312 9 9v6c0 4.9648-4.0312 9-9 9zm0-54c-4.9688 0-9-4.0312-9-9v-30c0-4.9688 4.0312-9 9-9s9 4.0312 9 9v30c0 4.9648-4.0312 9-9 9zm0-78c-4.9688 0-9-4.0312-9-9v-30c0-4.9688 4.0312-9 9-9s9 4.0312 9 9v30c0 4.9648-4.0312 9-9 9zm0-78c-4.9688 0-9-4.0312-9-9v-30c0-4.9688 4.0312-9 9-9s9 4.0312 9 9v30c0 4.9648-4.0312 9-9 9zm0-78c-4.9688 0-9-4.0312-9-9v-30c0-4.9688 4.0312-9 9-9s9 4.0312 9 9v30c0 4.9648-4.0312 9-9 9z"/>
  <path d="m645.23 1018.7c-3.1211 0-6.1445-1.6094-7.8008-4.5-2.4844-4.2969-1.0195-9.8047 3.2891-12.289l5.1953-3c4.3086-2.4961 9.8164-1.0195 12.289 3.2891 2.4844 4.2969 1.0195 9.8047-3.2891 12.289l-5.1953 3c-1.4258 0.81641-2.9609 1.2109-4.4883 1.2109zm46.766-27c-3.1211 0-6.1445-1.6211-7.8008-4.5-2.4844-4.2969-1.0078-9.8047 3.2891-12.289l20.746-11.977c0.011719-0.011718 0.023438-0.023437 0.035157-0.023437l5.207-3c4.3203-2.4961 9.8047-0.99609 12.289 3.2891 2.4844 4.3086 1.0078 9.8047-3.2891 12.289l-5.207 3c-0.011719 0.011718-0.011719 0.011718-0.023438 0.011718l-20.746 11.988c-1.4297 0.81641-2.9766 1.2109-4.5 1.2109zm67.547-39c-3.1211 0-6.1445-1.6211-7.8008-4.5-2.4844-4.2969-1.0078-9.8047 3.2891-12.289l20.762-11.988c0.011719 0 0.011719-0.011719 0.023438-0.011719l5.1953-3c4.3203-2.4961 9.8047-1.0195 12.289 3.2891 2.4844 4.2969 1.0195 9.8047-3.2891 12.289l-5.1953 3c-0.011719 0-0.011719 0.011718-0.023438 0.011718l-20.762 11.988c-1.4141 0.81641-2.9648 1.2109-4.4883 1.2109zm67.551-39c-3.1211 0-6.1445-1.6211-7.8008-4.5-2.4844-4.2969-1.0078-9.8047 3.2891-12.289l20.762-11.988c0.011718 0 0.011718-0.011719 0.023437-0.011719l5.1953-3c4.3086-2.4961 9.8164-1.0078 12.289 3.2891 2.4844 4.2969 1.0195 9.8047-3.2891 12.289l-5.1836 3h-0.011719l-20.785 12c-1.418 0.81641-2.9648 1.2109-4.4883 1.2109zm67.559-39c-3.1211 0-6.1445-1.6211-7.8008-4.5-2.4844-4.2969-1.0078-9.8047 3.2891-12.289l20.746-11.988c0.011719 0 0.023438-0.011719 0.023438-0.011719l5.207-3c4.3203-2.4961 9.8047-1.0078 12.289 3.2891 2.4844 4.3086 1.0078 9.8047-3.2891 12.289l-5.207 3c-0.011719 0.011718-0.023438 0.011718-0.035156 0.023437l-20.746 11.977c-1.4062 0.81641-2.9531 1.2109-4.4766 1.2109z"/>
  <path d="m554.87 1015.9c-1.5234 0-3.0703-0.38281-4.5-1.2109l-5.1953-3-0.011719-0.011718-20.762-11.988c-4.3086-2.4844-5.7734-7.9922-3.2891-12.289s8.0039-5.7852 12.289-3.2891l20.762 11.988s0.011719 0.011719 0.023438 0.011719l5.1953 3c4.2969 2.4844 5.7734 7.9922 3.2891 12.289-1.668 2.8828-4.6914 4.5-7.8008 4.5zm-67.547-39c-1.5234 0-3.0703-0.38281-4.5-1.2109l-5.1719-2.9766-0.023438-0.023438-20.785-12c-4.3086-2.4844-5.7734-7.9922-3.2891-12.289 2.4844-4.3086 8.0039-5.7734 12.289-3.2891l20.785 12 5.1953 3c4.3086 2.4844 5.7734 7.9922 3.2891 12.289-1.6445 2.8828-4.6797 4.5-7.7891 4.5zm-67.547-39c-1.5234 0-3.0703-0.38281-4.5-1.2109l-5.1719-2.9766c-0.011718-0.011719-0.011718-0.011719-0.023437-0.023438l-20.785-12c-4.3086-2.4844-5.7734-7.9922-3.2891-12.289s8.0039-5.7734 12.289-3.2891l20.785 12c0.011719 0 0.011719 0.011719 0.023437 0.011719l5.1719 2.9883c4.3086 2.4844 5.7734 7.9922 3.2891 12.289-1.6602 2.8828-4.6836 4.5-7.7891 4.5zm-67.551-39c-1.5234 0-3.0703-0.38281-4.5-1.2109l-5.1953-3-0.011719-0.011718-20.762-11.988c-4.3086-2.4844-5.7734-7.9922-3.2891-12.289s7.9922-5.7617 12.289-3.2891l20.762 11.988s0.011719 0.011719 0.023437 0.011719l5.1953 3c4.2969 2.4844 5.7734 7.9922 3.2891 12.289-1.6797 2.8828-4.7031 4.5-7.8008 4.5zm-67.547-39c-1.5234 0-3.0703-0.38281-4.5-1.2109l-5.1953-3c-4.3086-2.4844-5.7734-7.9922-3.2891-12.289s7.9922-5.7734 12.289-3.2891l5.1953 3c4.3086 2.4844 5.7734 7.9922 3.2891 12.289-1.6562 2.8828-4.6914 4.5-7.7891 4.5z"/>
  <path d="m232.92 787.78c-4.9688 0-9-4.0312-9-9v-1.5352c0-4.9688 4.0312-9 9-9s9 4.0312 9 9v1.5352c0 4.9648-4.0352 9-9 9zm0-49.523c-4.9688 0-9-4.0312-9-9v-30c0-4.9688 4.0312-9 9-9s9 4.0312 9 9v30c0 4.9648-4.0352 9-9 9zm0-78c-4.9688 0-9-4.0312-9-9v-30c0-4.9688 4.0312-9 9-9s9 4.0312 9 9v30c0 4.9648-4.0352 9-9 9zm0-78c-4.9688 0-9-4.0312-9-9v-30c0-4.9688 4.0312-9 9-9s9 4.0312 9 9v30c0 4.9648-4.0352 9-9 9zm0-78c-4.9688 0-9-4.0312-9-9v-30c0-4.9688 4.0312-9 9-9s9 4.0312 9 9v30c0 4.9648-4.0352 9-9 9zm0-78c-4.9688 0-9-4.0312-9-9v-28.246l10.512-6.0703c4.2969-2.4961 9.8164-1.0195 12.289 3.2891 2.4844 4.3086 1.0078 9.8047-3.2891 12.289l-1.5117 0.875v17.855c0 4.9727-4.0352 9.0078-9 9.0078zm47.59-50.523c-3.1094 0-6.1328-1.6094-7.8008-4.5-2.4844-4.3086-1.0078-9.8047 3.2891-12.301l5.1953-3c0.011719 0 0.023438-0.011719 0.023438-0.011719l20.762-11.988c4.2852-2.4961 9.8047-1.0195 12.289 3.2891s1.0078 9.8047-3.2891 12.289l-20.762 11.988s-0.011719 0-0.011719 0.011718l-5.1953 3c-1.4141 0.82813-2.9648 1.2227-4.5 1.2227zm67.547-39c-3.1094 0-6.1328-1.6094-7.8008-4.5-2.4844-4.3086-1.0078-9.8047 3.2891-12.289l5.1953-3s0.011718-0.011718 0.023437-0.011718l20.762-11.988c4.2969-2.4844 9.8047-1.0195 12.289 3.2891 2.4844 4.3086 1.0078 9.8047-3.2891 12.289l-20.762 11.988s-0.011719 0.011719-0.023437 0.011719l-5.1953 3c-1.4023 0.81641-2.9492 1.2109-4.4883 1.2109zm67.551-39.012c-3.1094 0-6.1328-1.6094-7.8008-4.5-2.4844-4.3086-1.0078-9.8047 3.2891-12.289l5.1953-3s0.011719-0.011719 0.023437-0.011719l20.762-11.988c4.2969-2.4961 9.8047-1.0195 12.289 3.2891 2.4844 4.3086 1.0078 9.8047-3.2891 12.289l-20.762 11.988s-0.011718 0.011718-0.023437 0.011718l-5.1953 3c-1.4062 0.82813-2.9531 1.2109-4.4883 1.2109zm67.559-39c-3.1094 0-6.1328-1.6094-7.8008-4.5-2.4844-4.3086-1.0078-9.8047 3.2891-12.289l5.1953-3s0.011719-0.011719 0.023438-0.011719l20.762-11.988c4.2969-2.4961 9.8164-1.0195 12.289 3.2891 2.4844 4.3086 1.0078 9.8047-3.2891 12.289l-20.762 11.988s-0.011719 0.011718-0.023438 0.011718l-5.1953 3c-1.418 0.82813-2.9648 1.2109-4.4883 1.2109zm67.547-39c-3.1094 0-6.1328-1.6094-7.8008-4.5-2.4844-4.3086-1.0078-9.8047 3.2891-12.289l5.1953-3c4.3086-2.4844 9.8047-1.0078 12.289 3.2891s1.0078 9.8047-3.2891 12.289l-5.1953 3c-1.4141 0.82813-2.9648 1.2109-4.4883 1.2109z"/>
  <path d="m600.27 187.92c-1.4414 0-2.8906-0.33594-4.2461-1.0664l-44.941-24.07c-4.3789-2.3516-6.0352-7.8008-3.6836-12.18 2.3516-4.3789 7.8008-6.0352 12.18-3.6836l44.941 24.07c4.3789 2.3516 6.0352 7.8008 3.6836 12.18-1.6094 3.0312-4.7188 4.75-7.9336 4.75z"/>
  <path d="m600.28 187.92c-3.2148 0-6.3125-1.7266-7.9453-4.7539-2.3516-4.3789-0.69531-9.8281 3.6836-12.18l44.93-24.07c4.4141-2.3633 9.8281-0.69531 12.191 3.6836 2.3398 4.3789 0.70703 9.8281-3.6836 12.18l-44.941 24.07c-1.332 0.73438-2.7969 1.0703-4.2344 1.0703z"/>
  <path d="m600.28 241.69c-4.9688 0-9-4.0312-9-9v-53.77c0-4.9688 4.0312-9 9-9s9 4.0312 9 9v53.773c0 4.9648-4.0352 8.9961-9 8.9961z"/>
  <path d="m600.28 884.41c-1.5469 0-3.1094-0.39453-4.5-1.2109l-226-130.48c-2.7852-1.6094-4.5-4.5859-4.5-7.7891v-260.96c0-3.2148 1.7148-6.1914 4.5-7.7891l226-130.48c2.7852-1.6094 6.2148-1.6094 9 0l226 130.48c2.7852 1.6094 4.5 4.5703 4.5 7.7891v260.95c0 3.2148-1.7148 6.1914-4.5 7.7891l-226 130.5c-1.3945 0.80469-2.9531 1.1992-4.5 1.1992zm-217-144.67 217 125.28 217-125.28v-250.56l-217-125.28-217 125.27z"/>
  <path d="m600.27 614.02c-1.4414 0-2.8906-0.33594-4.2461-1.0664l-225.99-121.05c-4.3789-2.3398-6.0352-7.8008-3.6836-12.18 2.3516-4.3789 7.7891-6.0352 12.18-3.6836l226 121.04c4.3789 2.3398 6.0352 7.8008 3.6836 12.18-1.6172 3.0273-4.7266 4.7539-7.9414 4.7539z"/>
  <path d="m600.28 614.02c-3.2148 0-6.3125-1.7266-7.9453-4.7539-2.3516-4.3789-0.69531-9.8398 3.6836-12.18l226.01-121.04c4.4141-2.3633 9.8398-0.69531 12.191 3.6836 2.3398 4.3789 0.69531 9.8398-3.6836 12.18l-226.01 121.05c-1.3555 0.73047-2.8086 1.0664-4.2461 1.0664z"/>
  <path d="m600.28 884.41c-4.9688 0-9-4.0312-9-9v-270.39c0-4.9688 4.0312-9 9-9s9 4.0312 9 9v270.39c0 4.9688-4.0352 9-9 9z"/>
  <path d="m600.28 1081.7c-1.5469 0-3.1094-0.39453-4.5-1.2109l-44.941-25.945c-2.7852-1.6094-4.5-4.5859-4.5-7.7891v-51.887c0-3.2148 1.7148-6.1914 4.5-7.7891l44.941-25.945c2.7852-1.6211 6.2148-1.6211 9 0l44.941 25.945c2.7852 1.6094 4.5 4.5859 4.5 7.7891v51.887c0 3.2148-1.7148 6.1914-4.5 7.7891l-44.941 25.945c-1.3945 0.80469-2.9531 1.2109-4.5 1.2109zm-35.941-40.141 35.941 20.746 35.941-20.746v-41.508l-35.941-20.746-35.941 20.746z"/>
  <path d="m600.27 1027.9c-1.4414 0-2.8906-0.33594-4.2461-1.0664l-44.941-24.07c-4.3789-2.3398-6.0352-7.8008-3.6836-12.191 2.3516-4.3906 7.8008-6.0234 12.18-3.6836l44.941 24.07c4.3789 2.3398 6.0352 7.8008 3.6836 12.191-1.6094 3.0312-4.7188 4.75-7.9336 4.75z"/>
  <path d="m600.28 1027.9c-3.2148 0-6.3125-1.7266-7.9453-4.7539-2.3516-4.3789-0.69531-9.8398 3.6836-12.191l44.93-24.07c4.4141-2.3516 9.8398-0.69531 12.191 3.6836 2.3398 4.3789 0.70703 9.8398-3.6836 12.191l-44.941 24.07c-1.3438 0.73438-2.7969 1.0703-4.2344 1.0703z"/>
  <path d="m600.28 1081.7c-4.9688 0-9-4.0312-9-9v-53.762c0-4.9688 4.0312-9 9-9s9 4.0312 9 9v53.762c0 4.9688-4.0352 9-9 9z"/>
  <path d="m972.14 459.12c-1.5586 0-3.1094-0.40625-4.5-1.2109l-44.941-25.945c-2.7852-1.6094-4.5-4.5703-4.5-7.7891v-51.887c0-3.2148 1.7148-6.1914 4.5-7.7891l44.941-25.945c2.7852-1.6094 6.2148-1.6094 9 0l44.941 25.945c2.7852 1.6094 4.5 4.5703 4.5 7.7891v51.887c0 3.2148-1.7148 6.1914-4.5 7.7891l-44.941 25.945c-1.3906 0.80078-2.9414 1.2109-4.5 1.2109zm-35.941-40.141 35.941 20.746 35.941-20.746v-41.496l-35.941-20.746-35.941 20.746z"/>
  <path d="m972.13 405.36c-1.4297 0-2.8789-0.33594-4.2461-1.0664l-44.941-24.07c-4.3789-2.3398-6.0234-7.8008-3.6836-12.18 2.3281-4.3789 7.7656-6.0469 12.191-3.6836l44.941 24.07c4.3789 2.3398 6.0234 7.8008 3.6836 12.18-1.6211 3.0234-4.7422 4.75-7.9453 4.75z"/>
  <path d="m972.16 405.36c-3.2148 0-6.3242-1.7266-7.9453-4.7539-2.3398-4.3789-0.70703-9.8398 3.6836-12.18l44.941-24.07c4.4023-2.3516 9.8516-0.69531 12.191 3.6836 2.3398 4.3789 0.70703 9.8398-3.6836 12.18l-44.941 24.07c-1.3672 0.72266-2.8164 1.0703-4.2461 1.0703z"/>
  <path d="m972.14 459.12c-4.9688 0-9-4.0312-9-9v-53.762c0-4.9688 4.0312-9 9-9s9 4.0312 9 9v53.762c0 4.9688-4.0312 9-9 9z"/>
  <path d="m972.19 891.56c-1.5586 0-3.1094-0.39453-4.5-1.2109l-44.93-25.945c-2.7852-1.6094-4.5-4.5859-4.5-7.7891l0.003906-51.898c0-3.2148 1.7148-6.1914 4.5-7.7891l44.93-25.934c2.7852-1.6211 6.2148-1.6211 9 0l44.941 25.934c2.7852 1.6094 4.5 4.5859 4.5 7.7891v51.898c0 3.2148-1.7148 6.1914-4.5 7.7891l-44.941 25.945c-1.4062 0.81641-2.9414 1.2109-4.5039 1.2109zm-35.938-40.137 35.93 20.746 35.941-20.746v-41.508l-35.941-20.746-35.93 20.734z"/>
  <path d="m972.18 837.79c-1.4297 0-2.8789-0.33594-4.2461-1.0664l-44.93-24.086c-4.3789-2.3398-6.0234-7.8008-3.6836-12.191 2.3398-4.3906 7.7656-6.0352 12.191-3.6836l44.93 24.086c4.3789 2.3398 6.0234 7.8008 3.6836 12.191-1.6328 3.0312-4.7422 4.75-7.9453 4.75z"/>
  <path d="m972.2 837.79c-3.2148 0-6.3125-1.7266-7.9453-4.7539-2.3398-4.3789-0.70703-9.8398 3.6836-12.191l44.941-24.086c4.4141-2.3516 9.8281-0.69531 12.191 3.6836 2.3398 4.3789 0.70703 9.8398-3.6836 12.191l-44.941 24.086c-1.3633 0.73438-2.8164 1.0703-4.2461 1.0703z"/>
  <path d="m972.19 891.56c-4.9688 0-9-4.0312-9-9v-53.762c0-4.9688 4.0312-9 9-9s9 4.0312 9 9v53.762c0 4.9688-4.0312 9-9 9z"/>
  <path d="m232.89 459.12c-1.5469 0-3.1094-0.40625-4.5-1.2109l-44.941-25.945c-2.7852-1.6094-4.5-4.5703-4.5-7.7891v-51.887c0-3.2148 1.7148-6.1914 4.5-7.7891l44.941-25.945c2.7852-1.6094 6.2148-1.6094 9 0l44.941 25.945c2.7852 1.6094 4.5 4.5703 4.5 7.7891v51.887c0 3.2148-1.7148 6.1914-4.5 7.7891l-44.941 25.945c-1.3906 0.80078-2.9375 1.2109-4.5 1.2109zm-35.938-40.141 35.941 20.746 35.941-20.746v-41.496l-35.941-20.746-35.941 20.746z"/>
  <path d="m232.89 405.36c-1.4414 0-2.8906-0.33594-4.2461-1.0664l-44.941-24.07c-4.3789-2.3398-6.0352-7.8008-3.6836-12.18 2.3516-4.3789 7.8008-6.0352 12.18-3.6836l44.941 24.07c4.3789 2.3398 6.0352 7.8008 3.6836 12.18-1.6211 3.0234-4.7266 4.75-7.9336 4.75z"/>
  <path d="m232.91 405.36c-3.2148 0-6.3125-1.7266-7.9453-4.7539-2.3516-4.3789-0.69531-9.8281 3.6836-12.18l44.941-24.07c4.3789-2.3516 9.8281-0.69531 12.18 3.6836 2.3516 4.3789 0.69531 9.8281-3.6836 12.18l-44.941 24.07c-1.3516 0.72266-2.8047 1.0703-4.2344 1.0703z"/>
  <path d="m232.89 459.12c-4.9688 0-9-4.0312-9-9v-53.762c0-4.9688 4.0312-9 9-9s9 4.0312 9 9v53.762c0 4.9688-4.0312 9-9 9z"/>
  <path d="m232.95 891.56c-1.5469 0-3.1094-0.39453-4.5-1.2109l-44.941-25.945c-2.7852-1.6094-4.5-4.5859-4.5-7.7891v-51.898c0-3.2148 1.7148-6.1914 4.5-7.7891l44.941-25.934c2.7852-1.6211 6.2148-1.6211 9 0l44.941 25.934c2.7852 1.6094 4.5 4.5859 4.5 7.7891v51.898c0 3.2148-1.7148 6.1914-4.5 7.7891l-44.941 25.945c-1.3945 0.81641-2.9414 1.2109-4.5 1.2109zm-35.941-40.137 35.941 20.746 35.941-20.746v-41.508l-35.941-20.746-35.941 20.746z"/>
  <path d="m232.95 837.79c-1.4414 0-2.8906-0.33594-4.2461-1.0664l-44.941-24.086c-4.3789-2.3398-6.0352-7.8008-3.6836-12.191 2.3516-4.3672 7.8242-6.0352 12.18-3.6836l44.941 24.086c4.3789 2.3398 6.0352 7.8008 3.6836 12.191-1.6211 3.0312-4.7305 4.75-7.9336 4.75z"/>
  <path d="m232.96 837.79c-3.2148 0-6.3125-1.7266-7.9453-4.7539-2.3516-4.3789-0.69531-9.8398 3.6836-12.191l44.941-24.086c4.3672-2.3516 9.8281-0.69531 12.18 3.6836 2.3516 4.3789 0.69531 9.8398-3.6836 12.191l-44.941 24.086c-1.3438 0.73438-2.8086 1.0703-4.2344 1.0703z"/>
  <path d="m232.95 891.56c-4.9688 0-9-4.0312-9-9v-53.762c0-4.9688 4.0312-9 9-9s9 4.0312 9 9v53.762c0 4.9688-4.0352 9-9 9z"/>
 </g>
</svg>
