<?xml version="1.0" encoding="UTF-8"?>
<svg width="1200pt" height="1200pt" version="1.1" viewBox="0 0 1200 1200" xmlns="http://www.w3.org/2000/svg">
 <path d="m1033.9 896.75c0.28906-0.50781 0.55469-1.0352 0.78906-1.5703 0.20312-0.55078 0.37891-1.1133 0.52344-1.6836 0.14844-0.51562 0.32812-1.0156 0.42969-1.5508 0.11328-0.6875 0.18359-1.3789 0.21094-2.0781 0.027344-0.39453 0.11719-0.76953 0.11719-1.1719v-577.4c0-0.22656-0.058594-0.43359-0.066407-0.65625-0.015625-0.35547-0.070312-0.69531-0.10547-1.0508-0.12891-1.3555-0.41797-2.6914-0.85937-3.9766-0.058594-0.16406-0.046876-0.33984-0.10938-0.50391-0.027343-0.066406-0.078124-0.11719-0.10547-0.18359-0.57422-1.4258-1.3398-2.7656-2.2734-3.9883-0.21094-0.28125-0.43359-0.53516-0.66016-0.79688l0.003906-0.003906c-0.92969-1.1133-1.9922-2.1055-3.1641-2.9531-0.074219-0.050782-0.13281-0.12109-0.20703-0.17188-1.2695-0.84375-2.6484-1.5156-4.0938-1.9961-0.33984-0.11719-0.67187-0.21875-1.0195-0.31641-1.5117-0.44922-3.0742-0.69141-4.6523-0.71484h-837.23c-1.5781 0.023437-3.1445 0.26562-4.6562 0.71484-0.34766 0.097656-0.67969 0.19922-1.0156 0.31641-1.4453 0.48047-2.8242 1.1523-4.0938 1.9961-0.070313 0.046875-0.125 0.11328-0.19531 0.16016v0.003906c-1.1797 0.85156-2.25 1.8477-3.1797 2.9688-0.22266 0.26172-0.44531 0.51172-0.65234 0.78906-0.93359 1.2227-1.6992 2.5664-2.2734 3.9961-0.027344 0.066406-0.078125 0.11328-0.10156 0.17969-0.0625 0.16406-0.050782 0.33594-0.10938 0.5-0.44531 1.2891-0.73438 2.625-0.86328 3.9844-0.035157 0.35547-0.09375 0.69531-0.10547 1.0508-0.007813 0.22266-0.066407 0.42969-0.066407 0.65625v577.4c0 0.40234 0.089844 0.77734 0.11719 1.1719v-0.003906c0.027344 0.69922 0.097656 1.3906 0.21094 2.082 0.10156 0.53516 0.28125 1.0312 0.42969 1.5469l-0.003906-0.003906c0.25391 1.1445 0.69531 2.2383 1.3086 3.2383 0.25391 0.48438 0.47656 0.97656 0.78125 1.4414 0.39063 0.55859 0.8125 1.0938 1.2656 1.6055 0.26172 0.3125 0.46484 0.65625 0.75 0.95312l0.11328 0.09375c0.66797 0.66406 1.3906 1.2695 2.1562 1.8164 0.17188 0.125 0.32422 0.29297 0.5 0.41406 0.94141 0.63281 1.9414 1.1719 2.9883 1.6094 0.48047 0.20312 0.99219 0.30469 1.4883 0.46094h-0.003906c0.58203 0.21094 1.1797 0.39453 1.7812 0.53906 1.1289 0.23047 2.2773 0.34375 3.4297 0.34766h837.23l0.054687-0.003906v-0.003907c1.1328-0.003906 2.2617-0.11719 3.3711-0.33984 0.60938-0.14844 1.207-0.32812 1.793-0.54297 0.49219-0.15625 0.99609-0.25781 1.4766-0.45703 1.0469-0.4375 2.0469-0.98047 2.9883-1.6133 0.14453-0.097657 0.26953-0.23828 0.41016-0.33984 0.80078-0.56641 1.5547-1.1992 2.2461-1.8906l0.10938-0.089844c0.27344-0.28516 0.46875-0.61328 0.71875-0.91016 0.46484-0.52344 0.90234-1.0781 1.3047-1.6523 0.29688-0.45703 0.51562-0.94141 0.76953-1.418zm-542.1-283.93 96.68 86.68c3.1758 2.8477 7.293 4.4219 11.559 4.4219s8.3828-1.5742 11.559-4.4219l96.68-86.68 267.55 258.57h-751.59zm-293.07 235.07v-497.82l267.22 239.58zm535.39-258.25 267.22-239.58v497.82zm239.29-261.04-373.38 334.75-373.38-334.75z" fill="#188fff"/>
</svg>
