<?xml version="1.0" encoding="UTF-8"?>
<svg width="1200pt" height="1200pt" version="1.1" viewBox="0 0 1200 1200" xmlns="http://www.w3.org/2000/svg">
 <g fill="#188fff">
  <path d="m881.25 1050c19.891 0 38.969-7.9023 53.031-21.969 14.066-14.062 21.969-33.141 21.969-53.031v-693.75c0-19.891-7.9023-38.969-21.969-53.031-14.062-14.066-33.141-21.969-53.031-21.969h-96.414c-4.1445-16.051-13.488-30.281-26.578-40.457-13.086-10.176-29.18-15.73-45.758-15.793h-225c-16.578 0.0625-32.672 5.6172-45.758 15.793-13.09 10.176-22.434 24.406-26.578 40.457h-96.414c-19.891 0-38.969 7.9023-53.031 21.969-14.066 14.062-21.969 33.141-21.969 53.031v693.75c0 19.891 7.9023 38.969 21.969 53.031 14.062 14.066 33.141 21.969 53.031 21.969zm-600-75v-693.75c0-9.9453 3.9492-19.484 10.984-26.516 7.0312-7.0352 16.57-10.984 26.516-10.984h96.414c4.1445 16.051 13.488 30.281 26.578 40.457 13.086 10.176 29.18 15.73 45.758 15.793h225c16.578-0.0625 32.672-5.6172 45.758-15.793 13.09-10.176 22.434-24.406 26.578-40.457h96.414c9.9453 0 19.484 3.9492 26.516 10.984 7.0352 7.0312 10.984 16.57 10.984 26.516v693.75c0 9.9453-3.9492 19.484-10.984 26.516-7.0312 7.0352-16.57 10.984-26.516 10.984h-562.5c-9.9453 0-19.484-3.9492-26.516-10.984-7.0352-7.0312-10.984-16.57-10.984-26.516z"/>
  <path d="m534.38 450h300c6.6992 0 12.887-3.5742 16.238-9.375 3.3477-5.8008 3.3477-12.949 0-18.75-3.3516-5.8008-9.5391-9.375-16.238-9.375h-300c-6.6992 0-12.887 3.5742-16.238 9.375-3.3477 5.8008-3.3477 12.949 0 18.75 3.3516 5.8008 9.5391 9.375 16.238 9.375z"/>
  <path d="m384.38 375h37.5c20.711 0 37.5 20.711 37.5 37.5v37.5c0 20.711-16.789 37.5-37.5 37.5h-37.5c-20.711 0-37.5-20.711-37.5-37.5v-37.5c0-20.711 16.789-37.5 37.5-37.5z"/>
  <path d="m534.38 600h300c6.6992 0 12.887-3.5742 16.238-9.375 3.3477-5.8008 3.3477-12.949 0-18.75-3.3516-5.8008-9.5391-9.375-16.238-9.375h-300c-6.6992 0-12.887 3.5742-16.238 9.375-3.3477 5.8008-3.3477 12.949 0 18.75 3.3516 5.8008 9.5391 9.375 16.238 9.375z"/>
  <path d="m384.38 525h37.5c20.711 0 37.5 20.711 37.5 37.5v37.5c0 20.711-16.789 37.5-37.5 37.5h-37.5c-20.711 0-37.5-20.711-37.5-37.5v-37.5c0-20.711 16.789-37.5 37.5-37.5z"/>
  <path d="m534.38 750h300c6.6992 0 12.887-3.5742 16.238-9.375 3.3477-5.8008 3.3477-12.949 0-18.75-3.3516-5.8008-9.5391-9.375-16.238-9.375h-300c-6.6992 0-12.887 3.5742-16.238 9.375-3.3477 5.8008-3.3477 12.949 0 18.75 3.3516 5.8008 9.5391 9.375 16.238 9.375z"/>
  <path d="m384.38 675h37.5c20.711 0 37.5 20.711 37.5 37.5v37.5c0 20.711-16.789 37.5-37.5 37.5h-37.5c-20.711 0-37.5-20.711-37.5-37.5v-37.5c0-20.711 16.789-37.5 37.5-37.5z"/>
  <path d="m534.38 900h300c6.6992 0 12.887-3.5742 16.238-9.375 3.3477-5.8008 3.3477-12.949 0-18.75-3.3516-5.8008-9.5391-9.375-16.238-9.375h-300c-6.6992 0-12.887 3.5742-16.238 9.375-3.3477 5.8008-3.3477 12.949 0 18.75 3.3516 5.8008 9.5391 9.375 16.238 9.375z"/>
  <path d="m384.38 825h37.5c20.711 0 37.5 20.711 37.5 37.5v37.5c0 20.711-16.789 37.5-37.5 37.5h-37.5c-20.711 0-37.5-20.711-37.5-37.5v-37.5c0-20.711 16.789-37.5 37.5-37.5z"/>
 </g>
</svg>
