<?xml version="1.0" encoding="UTF-8"?>
<svg width="1200pt" height="1200pt" version="1.1" viewBox="0 0 1200 1200" xmlns="http://www.w3.org/2000/svg">
 <path d="m237.89 411.07v377.86c0 25.191 15.543 49.832 45.391 70.754 59.402 41.645 178.9 70.941 316.72 70.941 137.82 0 257.32-29.297 316.73-70.941 29.848-20.922 45.387-45.562 45.387-70.754v-377.86c0-25.191-15.539-49.832-45.387-70.754-59.402-41.645-178.9-70.945-316.73-70.945-137.82 0-257.32 29.301-316.72 70.945-29.848 20.922-45.391 45.562-45.391 70.754zm692.74 311.75c-4.2188 3.7305-8.8633 7.3672-13.898 10.91-59.402 41.645-178.9 70.945-316.73 70.945-137.82 0-257.32-29.301-316.72-70.945-5.0352-3.543-9.6797-7.1797-13.902-10.91v66.109c0 10.266 5.0703 19.918 13.543 29.16 10.359 11.301 25.582 21.68 44.57 31.109 61.465 30.465 160.71 49.938 272.51 49.938 111.8 0 211.05-19.473 272.52-49.938 18.988-9.4297 34.211-19.809 44.57-31.109 8.4727-9.2422 13.539-18.895 13.539-29.16zm0-125.95c-4.2188 3.7344-8.8633 7.3711-13.898 10.91-59.402 41.645-178.9 70.945-316.73 70.945-137.82 0-257.32-29.301-316.72-70.945-5.0352-3.5391-9.6797-7.1758-13.902-10.91v66.109c0 10.266 5.0703 19.918 13.543 29.16 10.359 11.305 25.582 21.68 44.57 31.109 61.465 30.465 160.71 49.941 272.51 49.941 111.8 0 211.05-19.477 272.52-49.941 18.988-9.4297 34.211-19.805 44.57-31.109 8.4727-9.2422 13.539-18.895 13.539-29.16zm0-125.95c-4.2188 3.7305-8.8633 7.3672-13.898 10.91-59.402 41.641-178.9 70.941-316.73 70.941-137.82 0-257.32-29.301-316.72-70.941-5.0352-3.543-9.6797-7.1797-13.902-10.91v66.109c0 10.262 5.0703 19.914 13.543 29.156 10.359 11.305 25.582 21.68 44.57 31.109 61.465 30.465 160.71 49.941 272.51 49.941 111.8 0 211.05-19.477 272.52-49.941 18.988-9.4297 34.211-19.805 44.57-31.109 8.4727-9.2422 13.539-18.895 13.539-29.156zm-330.62-170.05c111.8 0 211.05 19.477 272.52 49.941 18.988 9.4297 34.211 19.805 44.57 31.109 8.4727 9.2422 13.539 18.895 13.539 29.16s-5.0664 19.914-13.539 29.156c-10.359 11.305-25.582 21.68-44.57 31.109-61.465 30.465-160.71 49.941-272.52 49.941-111.8 0-211.05-19.477-272.51-49.941-18.988-9.4297-34.211-19.805-44.57-31.109-8.4727-9.2422-13.543-18.891-13.543-29.156s5.0703-19.918 13.543-29.16c10.359-11.305 25.582-21.68 44.57-31.109 61.465-30.465 160.71-49.941 272.51-49.941z" fill="#5403ba" fill-rule="evenodd"/>
</svg>
