<?xml version="1.0" encoding="UTF-8"?>
<svg width="1200pt" height="1200pt" version="1.1" viewBox="0 0 1200 1200" xmlns="http://www.w3.org/2000/svg">
 <path d="m480 222.86c0-9.4648 7.6758-17.141 17.145-17.141h205.71c9.4688 0 17.145 7.6758 17.145 17.141v111.43c0 9.4688-7.6758 17.145-17.145 17.145h-94.285v72.137l115.28 65.078c2.8477 1.6055 5 3.8281 6.4492 6.3555h186.85c14.203 0 25.711 11.512 25.711 25.715v135h94.289c9.4648 0 17.141 7.6758 17.141 17.141v111.43c0 9.4688-7.6758 17.145-17.141 17.145h-205.71c-9.4688 0-17.145-7.6758-17.145-17.145v-111.43c0-9.4648 7.6758-17.141 17.145-17.141h94.285v-135c0-4.7344-3.8359-8.5703-8.5703-8.5703h-186.85c-1.4492 2.5273-3.6016 4.7461-6.4492 6.3555l-115.28 65.078v72.137h94.285c9.4688 0 17.145 7.6758 17.145 17.141v111.43c0 9.4688-7.6758 17.145-17.145 17.145h-94.285v68.57h94.285c9.4688 0 17.145 7.6758 17.145 17.145v111.43c0 9.4688-7.6758 17.145-17.145 17.145h-205.71c-9.4688 0-17.145-7.6758-17.145-17.145v-111.43c0-9.4688 7.6758-17.145 17.145-17.145h94.285v-68.57h-94.285c-9.4688 0-17.145-7.6758-17.145-17.145v-111.43c0-9.4648 7.6758-17.141 17.145-17.141h94.285v-72.137l-115.28-65.078c-2.8477-1.6094-5-3.8281-6.4492-6.3555h-186.85c-4.7305 0-8.5703 3.8359-8.5703 8.5703v135h94.285c9.4688 0 17.145 7.6758 17.145 17.141v111.43c0 9.4688-7.6758 17.145-17.145 17.145h-205.71c-9.4648 0-17.141-7.6758-17.141-17.145v-111.43c0-9.4648 7.6758-17.141 17.141-17.141h94.289v-135c0-14.203 11.512-25.715 25.711-25.715h186.85c1.4492-2.5273 3.5977-4.75 6.4492-6.3555l115.28-65.078v-72.137h-94.285c-9.4688 0-17.145-7.6758-17.145-17.145zm222.86 0h-205.71v111.43h205.71zm0 450h-205.71v111.43h205.71zm-205.71 214.29h205.71v111.43h-205.71zm-334.29-214.29v111.43h205.71v-111.43zm321.72-169.29 115.42-65.156 115.42 65.156-115.42 65.156zm552.57 169.29v111.43h-205.71v-111.43z" fill="#188fff" fill-rule="evenodd"/>
</svg>
